<?xml version="1.0" standalone="no"?>
<!DOCTYPE svg PUBLIC "-//W3C//DTD SVG 20010904//EN"
 "http://www.w3.org/TR/2001/REC-SVG-20010904/DTD/svg10.dtd">
<svg version="1.0" xmlns="http://www.w3.org/2000/svg"
 width="640.000000pt" height="640.000000pt" viewBox="0 0 640.000000 640.000000"
 preserveAspectRatio="xMidYMid meet">
<metadata>
Created by potrace 1.14, written by Peter Selinger 2001-2017
</metadata>
<g transform="translate(0.000000,640.000000) scale(0.100000,-0.100000)"
fill="#000000" stroke="none">
<path d="M0 3200 l0 -3200 3200 0 3200 0 0 3200 0 3200 -3200 0 -3200 0 0
-3200z m3020 2163 c-1 -9 -50 -47 -50 -39 0 5 41 46 47 46 2 0 3 -3 3 -7z
m245 -13 c-3 -5 -10 -10 -15 -10 -5 0 -21 -11 -36 -25 -15 -14 -30 -23 -32
-20 -8 8 17 31 53 49 35 19 38 19 30 6z m145 -47 c-8 -3 -41 -18 -72 -34 -32
-16 -58 -25 -58 -21 0 11 102 60 125 60 14 0 15 -1 5 -5z m-760 -53 c0 -5 -4
-10 -10 -10 -5 0 -10 5 -10 10 0 6 5 10 10 10 6 0 10 -4 10 -10z m170 -15 c0
-8 -5 -15 -11 -15 -5 0 -8 -4 -4 -9 3 -5 1 -12 -4 -15 -5 -3 -11 1 -15 9 -3 8
-1 15 4 15 6 0 10 7 10 15 0 8 5 15 10 15 6 0 10 -7 10 -15z m197 -37 c-3 -8
-6 -5 -6 6 -1 11 2 17 5 13 3 -3 4 -12 1 -19z m-250 -40 c-3 -7 -5 -2 -5 12 0
14 2 19 5 13 2 -7 2 -19 0 -25z m23 -48 c0 -5 -2 -10 -4 -10 -3 0 -8 5 -11 10
-3 6 -1 10 4 10 6 0 11 -4 11 -10z m-290 -25 c7 -8 9 -15 6 -15 -4 0 -14 7
-22 15 -9 8 -11 15 -6 15 5 0 15 -7 22 -15z m-145 -54 c-3 -6 -14 -11 -23 -11
-15 1 -15 2 2 15 21 16 32 13 21 -4z m949 -6 c-4 -11 1 -15 17 -16 60 -3 64
-4 61 -21 -2 -12 2 -16 13 -12 15 6 20 -5 15 -35 -1 -12 1 -13 14 -2 13 11 22
6 62 -32 25 -25 43 -50 40 -56 -4 -5 -1 -13 7 -18 19 -12 49 -62 42 -73 -6 -9
13 -50 29 -61 5 -4 1 -22 -8 -40 -9 -19 -11 -28 -4 -21 19 19 28 15 28 -13 0
-14 5 -25 10 -25 6 0 10 -7 10 -15 0 -8 -4 -15 -10 -15 -5 0 -10 -7 -10 -16 0
-11 6 -14 22 -8 20 6 21 5 10 -9 -26 -31 11 -122 46 -111 11 4 8 -1 -8 -15
-15 -12 -19 -21 -11 -21 9 0 12 -9 9 -30 -3 -17 -1 -33 4 -36 4 -3 8 -14 8
-25 0 -10 5 -19 10 -19 6 0 10 -11 10 -24 0 -14 4 -27 9 -31 14 -8 41 -65 41
-87 0 -10 -4 -26 -9 -36 -11 -19 -25 -73 -23 -84 4 -17 -29 -89 -49 -109 -16
-16 -34 -22 -75 -23 -60 -1 -91 17 -63 37 15 11 22 33 36 117 3 19 14 46 23
60 10 14 21 41 24 60 4 22 3 30 -3 21 -6 -10 -10 -10 -16 -1 -4 6 -2 17 4 23
21 21 12 37 -21 37 -17 0 -28 3 -25 7 4 3 2 12 -4 20 -9 10 -7 13 9 13 30 0
72 43 72 73 0 24 -22 42 -47 38 -6 -1 -17 7 -25 16 -7 10 -25 26 -40 35 -15
10 -53 42 -84 73 -65 62 -100 71 -110 30 -3 -14 -10 -25 -14 -25 -5 0 -11 -10
-15 -22 -13 -46 -92 -173 -96 -154 -1 3 -2 10 -3 15 0 5 -4 12 -7 15 -9 9 6
115 19 128 8 8 15 8 27 -2 13 -11 15 -8 15 23 0 31 6 40 45 68 25 18 45 37 45
42 0 5 11 7 25 5 13 -3 22 -1 19 3 -3 5 0 9 6 9 6 0 20 -16 31 -35 12 -19 22
-35 22 -35 1 0 2 19 1 42 -1 31 -6 46 -20 53 -10 6 -32 19 -47 29 -23 15 -39
18 -89 12 -35 -3 -69 -13 -80 -23 -10 -9 -21 -13 -25 -9 -4 3 -22 -8 -40 -26
-29 -28 -33 -38 -33 -83 0 -38 6 -58 20 -75 26 -30 43 -95 37 -142 -4 -28 -2
-38 9 -38 8 0 14 -4 14 -10 0 -5 -7 -10 -15 -10 -9 0 -15 -9 -15 -22 -1 -21
-2 -21 -11 -5 -9 16 -12 14 -35 -13 -14 -16 -31 -30 -36 -30 -6 0 -16 -7 -23
-16 -13 -18 -54 -25 -72 -12 -6 5 -14 5 -17 0 -7 -12 -129 -7 -134 7 -2 6 -12
11 -23 11 -20 0 -31 7 -73 45 -59 54 -105 85 -111 75 -3 -6 -10 -8 -15 -5 -4
3 -11 -7 -14 -20 -4 -14 -11 -23 -15 -20 -5 3 -7 14 -4 25 7 28 -11 25 -27 -5
-7 -14 -17 -25 -22 -25 -4 0 -8 -9 -8 -19 0 -11 -4 -22 -9 -25 -5 -3 -12 -18
-15 -32 -4 -15 -20 -46 -35 -68 -36 -53 -32 -66 17 -55 20 5 40 9 45 9 14 0 7
-51 -8 -56 -8 -4 -13 -10 -10 -14 3 -5 -4 -25 -16 -45 l-22 -36 27 7 c22 5 28
3 33 -15 3 -11 12 -21 19 -21 8 0 14 -6 14 -13 0 -7 14 -23 30 -37 17 -14 30
-31 30 -38 0 -8 6 -12 15 -9 18 8 28 -8 21 -31 -11 -34 -116 -72 -116 -42 0 5
-7 7 -15 4 -8 -4 -22 0 -31 7 -13 10 -17 10 -24 0 -10 -18 -24 4 -16 26 4 10
2 14 -8 10 -12 -5 -26 29 -31 78 -1 6 -8 24 -17 40 -16 32 -14 50 10 77 12 14
13 32 8 90 -4 40 -7 90 -6 110 1 30 -2 36 -15 32 -9 -4 -15 -1 -15 9 0 8 4 17
9 19 5 2 7 16 4 31 -4 18 -8 24 -13 17 -11 -18 -15 154 -6 290 2 40 -1 71 -8
79 -8 11 -8 15 1 18 8 3 10 17 8 36 -3 18 -3 26 1 19 7 -15 24 -6 24 14 0 8
-4 12 -10 9 -15 -9 -12 8 4 31 12 15 17 17 27 7 16 -16 33 -17 23 -1 -5 7 -3
8 5 4 7 -5 20 -1 30 8 10 9 25 14 33 11 8 -3 32 2 54 12 41 18 47 20 65 22 6
1 8 10 3 23 -6 19 -4 21 7 12 27 -22 59 -27 59 -10 0 19 11 21 28 4 9 -9 12
-9 12 2 0 10 4 9 18 -3 14 -12 25 -14 47 -8 17 5 24 10 16 10 -8 1 -11 4 -7 8
10 10 46 11 46 1 0 -4 9 -8 21 -8 15 0 19 5 15 15 -3 9 0 15 10 15 9 0 12 -5
8 -12 -5 -8 5 -9 35 -5 50 6 61 14 41 27 -13 8 -12 10 2 10 9 0 19 -4 22 -8 3
-4 21 -6 42 -4 29 4 33 6 20 14 -9 5 -25 7 -35 3 -18 -5 -39 21 -26 33 3 3 5
0 5 -6 0 -17 50 -15 56 3 4 8 16 15 27 15 20 0 20 0 2 -14 -18 -13 -18 -14 3
-25 29 -15 34 -14 27 8 -4 12 0 21 12 25 10 4 19 2 21 -3 2 -6 8 -11 13 -11 6
0 5 8 -1 20 -9 16 -8 18 5 14 8 -4 15 -1 15 6 0 7 8 10 18 8 10 -3 27 1 37 8
25 18 36 18 29 -1z m-491 -125 c-3 -11 -9 -20 -14 -20 -5 0 -9 9 -9 20 0 11 6
20 14 20 9 0 12 -7 9 -20z m-254 -56 c13 -12 -8 -10 -29 2 l-25 15 25 -7 c14
-3 27 -8 29 -10z m38 10 c-3 -3 -12 -4 -19 -1 -8 3 -5 6 6 6 11 1 17 -2 13 -5z
m1083 -384 c0 -5 -5 -10 -11 -10 -5 0 -7 5 -4 10 3 6 8 10 11 10 2 0 4 -4 4
-10z m-550 -380 c14 -11 31 -20 39 -20 8 0 11 -6 7 -16 -4 -10 -2 -13 6 -8 6
4 17 -1 25 -12 10 -14 16 -16 21 -6 7 9 14 9 35 -1 15 -6 27 -16 27 -20 0 -5
4 -5 10 -2 5 3 25 -8 42 -24 18 -17 36 -31 41 -31 4 0 7 -7 7 -15 0 -8 5 -15
10 -15 6 0 10 -6 10 -14 0 -16 -24 -38 -33 -30 -3 3 -34 7 -69 8 -35 2 -83 9
-107 16 -34 10 -48 11 -63 1 -15 -9 -23 -9 -34 0 -11 9 -22 6 -55 -15 -32 -22
-43 -25 -55 -15 -11 9 -14 9 -14 -1 0 -8 -9 -11 -25 -8 -15 3 -29 0 -33 -7 -4
-7 -24 -20 -44 -28 -34 -14 -38 -14 -53 3 -11 12 -13 20 -6 25 6 3 11 1 11 -6
0 -8 4 -8 15 1 17 14 21 35 5 25 -5 -3 -10 -2 -10 4 0 17 22 24 31 10 7 -11 9
-10 9 4 0 9 5 17 10 17 6 0 23 11 38 25 15 14 33 23 40 20 8 -3 19 1 26 8 14
15 46 81 46 96 0 6 5 11 11 11 6 0 9 6 6 14 -12 32 35 36 73 6z m-541 -66 c-6
-7 -15 -11 -20 -8 -5 3 -3 11 4 18 16 18 31 8 16 -10z m631 -334 c0 -5 -4 -10
-10 -10 -5 0 -10 5 -10 10 0 6 5 10 10 10 6 0 10 -4 10 -10z m-230 -9 c0 -6
-4 -13 -10 -16 -5 -3 -10 1 -10 9 0 9 5 16 10 16 6 0 10 -4 10 -9z m168 -26
c-3 -3 -9 2 -12 12 -6 14 -5 15 5 6 7 -7 10 -15 7 -18z m-141 -21 c-3 -3 -12
-4 -19 -1 -8 3 -5 6 6 6 11 1 17 -2 13 -5z"/>
<path d="M3300 4990 c0 -5 5 -10 11 -10 5 0 7 5 4 10 -3 6 -8 10 -11 10 -2 0
-4 -4 -4 -10z"/>
<path d="M3228 4953 c7 -3 16 -2 19 1 4 3 -2 6 -13 5 -11 0 -14 -3 -6 -6z"/>
<path d="M3285 4950 c-3 -5 1 -10 9 -10 9 0 16 5 16 10 0 6 -4 10 -9 10 -6 0
-13 -4 -16 -10z"/>
<path d="M3335 4950 c3 -5 8 -10 11 -10 2 0 4 5 4 10 0 6 -5 10 -11 10 -5 0
-7 -4 -4 -10z"/>
<path d="M2706 4563 c-4 -4 -23 -8 -41 -9 -41 -1 -97 -28 -142 -68 -27 -24
-31 -32 -21 -42 9 -10 24 -11 52 -4 21 5 49 5 61 0 13 -5 26 -5 32 1 6 6 22
-2 43 -21 39 -35 39 -35 54 -14 19 25 46 7 46 -31 0 -19 5 -37 10 -40 6 -4 10
5 10 20 0 22 3 25 23 20 20 -5 26 0 41 33 14 31 15 44 7 60 -14 26 -96 82
-121 82 -10 0 -22 5 -25 10 -7 12 -19 13 -29 3z"/>
<path d="M3650 4210 c0 -5 5 -10 11 -10 5 0 7 5 4 10 -3 6 -8 10 -11 10 -2 0
-4 -4 -4 -10z"/>
</g>
</svg>
